<svg xmlns="http://www.w3.org/2000/svg" viewBox="0 0 240 80" role="img" aria-labelledby="title">
  <title id="title">Klaviyo</title>
  <rect width="240" height="80" rx="12" fill="#ffffff"/>
  <path d="M36 26h17.5L39.8 39.4 55.2 58H36.7L24.8 42.8V58H10V22h14.8v14.7L36 26Z" fill="#111111"/>
  <path d="M65 22h14.3v36H65V22Zm22.2 4h14.3v32H87.2V26Zm7.2-13.8c4.6 0 8 3.2 8 7.4s-3.4 7.5-8 7.5-8.1-3.2-8.1-7.5 3.5-7.4 8.1-7.4Zm14.2 13.8h15.2l8.1 18.3 8.2-18.3h15.1L139 58h-14.1l-16.3-32Zm52.7 0h14.3v32h-14.3V26Zm7.2-13.8c4.6 0 8.1 3.2 8.1 7.4s-3.5 7.5-8.1 7.5-8-3.2-8-7.5 3.4-7.4 8-7.4Zm16.6 13.8h14.2v4.2c2.2-3.2 5.7-5 10.4-5 9.3 0 16.3 7.1 16.3 16.8S219 58.8 209.7 58.8c-4.5 0-8-1.6-10.4-4.7V58h-14.2V26Zm20.2 21.2c3.9 0 6.8-2.8 6.8-6.9 0-4-2.9-6.9-6.8-6.9-4 0-6.9 2.9-6.9 6.9 0 4.1 2.9 6.9 6.9 6.9Z" fill="#111111"/>
  <path d="M224 19.5a7.5 7.5 0 1 1-15 0 7.5 7.5 0 0 1 15 0Z" fill="#35E9A1"/>
</svg>
